<svg width="160" height="46" xmlns="http://www.w3.org/2000/svg"><g fill-rule="nonzero" fill="none"><path d="M128.62 17.979V3.155h3.874v5.618h.279l3.54-5.618h4.433l-4.13 6.54 4.75 7.687v.597h-4.223l-3.192-5.68h-1.511v5.656l-3.82.024zM7.423 9.052l1.704 3.874H7.415l-1.333 3.2h4.262l.868 1.853h3.672v-.55L8.244 3.077h-1.62L0 17.43v.55h3.68l3.743-8.927zM32.03 3.155h1.348v14.824h-3.874v-6.587l-3.161 3.293h-.426l-3.1-3.293v6.587h-3.874V3.155h1.395l5.788 6.416 5.904-6.416zm16.21 3.425H42.77v2.092h5.02v3.356h-5.02v2.595h5.656v3.356h-9.414V3.194h9.228V6.58zm10.994 11.399h-5.571V3.194h5.57c9.632.046 9.632 14.738 0 14.785zm-1.798-3.44h1.798c4.71 0 4.71-7.897 0-7.897h-1.798v7.896zm20.936.084v3.317H70.88v-3.317h1.875V6.495h-1.727V3.194h7.229v3.3H76.49v8.13h1.883zm14.28 1.496h-5.827l-.86 1.86H82.27v-.55L88.918 3h1.627l6.664 14.42v.55h-3.696l-.86-1.851zm-2.937-7.114L88.05 12.88h3.379l-1.713-3.875zM98.69 6.58V3.194h10.979V6.58h-3.61v11.399h-3.735V6.58h-3.634zm24.957 0h-5.463v2.092h5.013v3.356h-5.02v2.595h5.655v3.356h-9.414V3.194h9.22l.009 3.386zm32.65 11.399H160v-.55L153.344 3h-1.627l-6.671 14.429v.55h3.72l.875-1.86h4.277l-1.34-3.224h-1.72l1.711-3.874 3.727 8.958zM130.324 28.92a.868.868 0 1 1 .868.86.86.86 0 0 1-.868-.86zm.868.72a.713.713 0 1 0-.697-.72.69.69 0 0 0 .697.713v.008zm-.178-.216h-.147v-1h.38c.232 0 .348.085.348.28a.256.256 0 0 1-.256.27l.28.434h-.171l-.263-.426h-.171v.442zm.178-.558c.124 0 .24 0 .24-.163s-.108-.147-.217-.147h-.201v.31h.178zM106.197 42.93h-4.014v-5.734H99.58v5.734h-4.138V28.145h4.138v5.502h2.603v-5.502h4.014V42.93zm18.394.07a7.578 7.578 0 0 0 7.508-7.586 7.509 7.509 0 0 0-14.28-3.247 4.285 4.285 0 0 0-3.92-4.022h-6.85v14.778h6.384a4.448 4.448 0 0 0 4.41-4.146A7.531 7.531 0 0 0 124.59 43zm-11.708-6.013a1.263 1.263 0 0 1 0 2.495h-2.03v-2.495h2.03zm0-5.548a1.263 1.263 0 0 1 0 2.495h-2.03v-2.495h2.03zm2.704 3.983a3.161 3.161 0 0 0 1.55-.93 6.835 6.835 0 0 0 0 2.06 2.836 2.836 0 0 0-1.542-1.13h-.008zm5.238 0a3.758 3.758 0 1 1 3.758 3.758 3.758 3.758 0 0 1-3.75-3.758h-.008zm3.758 2.96a2.96 2.96 0 1 0-2.937-2.96 2.96 2.96 0 0 0 2.945 2.952l-.008.008zM34.658 35.87h-5.765v4.324h-.922v-9.392h.922v4.138h5.765v-4.138h.922v9.392h-.922V35.87zm7.833-5.2a4.649 4.649 0 0 1 4.71 4.875 4.711 4.711 0 1 1-9.42 0 4.65 4.65 0 0 1 4.71-4.875zm0 8.741a3.696 3.696 0 0 0 3.742-3.874 3.743 3.743 0 1 0-3.742 3.874zm6.92-8.609h.952l3.727 4.944 3.572-4.944h.883v9.392h-.937v-7.912l-3.541 4.812h-.132l-3.61-4.78v7.88h-.915v-9.392zm12.086 0h5.424v.93h-4.494v3.247h4.091v.93H62.42v3.37h4.65v.915h-5.572v-9.392zm15.907-.132a4.649 4.649 0 0 1 4.727 4.875 4.711 4.711 0 1 1-9.422 0 4.65 4.65 0 0 1 4.695-4.875zm0 8.749a3.696 3.696 0 0 0 3.743-3.874 3.743 3.743 0 1 0-3.743 3.874zm6.912-8.617h5.423v.93H85.23v3.526h4.114v.93H85.23v4.006h-.914v-9.392z" fill="#FFF"/></g></svg>