<?xml version="1.0" encoding="UTF-8"?>
<svg width="42px" height="42px" viewBox="0 0 42 42" version="1.1" xmlns="http://www.w3.org/2000/svg" xmlns:xlink="http://www.w3.org/1999/xlink">
    <!-- Generator: Sketch 55.2 (78181) - https://sketchapp.com -->
    <title>Combined Shape</title>
    <desc>Created with Sketch.</desc>
    <g id="Page-1" stroke="none" stroke-width="1" fill="none" fill-rule="evenodd">
        <path d="M23.0238287,28.244389 C25.0919639,28.244389 25.8354724,27.4569871 25.8354724,25.4708601 C25.8354724,23.484733 25.0919639,22.5708658 23.0238287,22.5708658 C20.9561185,22.5708658 20.2126101,23.484733 20.2126101,25.4708601 C20.2126101,27.4569871 20.9561185,28.244389 23.0238287,28.244389 Z M23.0238287,14.1553262 C21.2468902,14.1553262 20.5356898,14.7855795 20.5356898,16.8977572 C20.5356898,18.9460803 21.2468902,19.6401881 23.0238287,19.6401881 C24.8016173,19.6401881 25.5123927,18.9460803 25.5123927,16.8977572 C25.5123927,14.7855795 24.8016173,14.1553262 23.0238287,14.1553262 Z M26.8370195,20.9322073 C29.0025038,21.7515366 29.1640436,23.5485876 29.1640436,25.9120373 C29.1640436,29.4107722 27.9036076,31.1443833 23.0238287,31.2393359 C18.1440497,31.1443833 16.8844639,29.4107722 16.8844639,25.9120373 C16.8844639,23.5485876 17.0455787,21.7515366 19.2106378,20.9322073 C17.4009663,19.6401881 17.3686584,18.3162417 17.3686584,17.2443965 L17.3686584,16.1729659 C17.5629313,12.6107911 18.7910593,11.255332 23.0238287,11.255332 C27.2574482,11.255332 28.4851511,12.6107911 28.6789989,16.1729659 L28.6789989,17.2443965 C28.6789989,18.3162417 28.646691,19.6401881 26.8370195,20.9322073 Z M12.930142,11.255332 C14.0207491,11.255332 14.5820427,11.4502562 14.5820427,12.3923897 L14.5820427,29.5170781 C14.5820427,30.6545634 14.3946715,31.2393359 13.4906156,31.2393359 L12.4315787,31.2393359 C11.5275229,31.2393359 11.3401517,30.6545634 11.3401517,29.5170781 L11.3401517,15.4791168 C11.3401517,14.8293696 11.1536004,14.6015305 10.7485178,14.6015305 L10.0937436,14.6015305 C9.00354649,14.6015305 8.44225285,14.4070338 8.44225285,13.4644728 L8.44225285,12.3923897 C8.44225285,11.4502562 9.00354649,11.255332 10.0937436,11.255332 L12.930142,11.255332 Z M39.2362207,18.6448626 L39.2362207,14.0633813 C39.2362207,12.8859917 38.8228867,11.8676522 37.9970546,11.0087814 L30.7852331,3.69038194 C30.0542714,2.95916982 29.1331509,2.73608106 28.0849794,2.73608106 L13.9150206,2.73608106 C12.8668491,2.73608106 11.9457286,2.95916982 11.2147669,3.69038194 L4.00336335,11.0087814 C3.14576845,11.8676522 2.76377929,12.8859917 2.76377929,14.0633813 L2.76377929,28.094534 C2.73159859,29.2719237 3.11358774,30.1307945 3.9398378,30.9582738 L11.0241903,38.0531659 C11.8504403,38.8806453 12.7715608,39.2627842 13.9150206,39.2627842 L28.0849794,39.2627842 C29.2284392,39.2627842 30.1495597,38.8806453 30.9758097,38.0531659 L38.0605801,30.9582738 C38.8864123,30.1626045 39.2362207,29.2719237 39.2362207,28.094534 L39.2362207,23.258154 C39.2044579,22.8450421 38.9821185,22.6223719 38.5687845,22.6223719 L36.4406786,22.6223719 L36.4406786,24.1174433 C36.4406786,25.2307943 36.2814468,25.8037934 35.3281457,25.8037934 L34.3748445,25.8037934 C33.4223792,25.8037934 33.2631474,25.2307943 33.2631474,24.1174433 L33.2631474,22.6223719 L31.770297,22.6223719 C30.6585999,22.6223719 30.0860341,22.4629032 30.0860341,21.5086024 L30.0860341,20.4902629 C30.0860341,19.535962 30.6585999,19.3764933 31.770297,19.3764933 L33.2631474,19.3764933 L33.2631474,17.8814219 C33.2631474,16.7680709 33.4223792,16.1950718 34.3748445,16.1950718 L35.3281457,16.1950718 C36.2814468,16.1950718 36.4406786,16.7680709 36.4406786,17.8814219 L36.4406786,19.3764933 L38.5687845,19.3764933 C39.0134634,19.3764933 39.2362207,19.1224316 39.2362207,18.6448626 Z M32.7227623,1.84540024 L40.1891039,9.29062128 C41.3647445,10.4680109 42,12.0267023 42,13.745281 L42,28.094534 C42,30.0353644 41.300801,31.5944744 39.9985273,32.8995227 L32.9137569,39.9944148 C31.4840141,41.4258661 29.8954575,41.9988652 27.9579283,41.9988652 L14.0424897,41.9988652 C12.040599,42.0306752 10.4838052,41.3944747 9.0862431,39.9944148 L2.00147271,32.8995227 C0.667436191,31.5944744 1.08713039e-12,30.0671744 1.08713039e-12,28.094534 L1.08713039e-12,13.745281 C1.08713039e-12,12.0267023 0.635673417,10.4680109 1.81047813,9.29062128 L9.27681974,1.84540024 C10.4838052,0.636619136 12.0723618,-1.08713039e-12 13.9467834,-1.08713039e-12 L28.0527986,-1.08713039e-12 C29.9276382,-1.08713039e-12 31.4840141,0.636619136 32.7227623,1.84540024 Z" id="Combined-Shape" fill="#1F2125"></path>
    </g>
</svg>