<?xml version="1.0" encoding="UTF-8"?>
<svg width="30px" height="30px" viewBox="0 0 30 30" version="1.1" xmlns="http://www.w3.org/2000/svg" xmlns:xlink="http://www.w3.org/1999/xlink">
    <!-- Generator: Sketch 55.2 (78181) - https://sketchapp.com -->
    <title>yu</title>
    <desc>Created with Sketch.</desc>
    <g id="yu" stroke="none" stroke-width="1" fill="none" fill-rule="evenodd">
        <circle id="Oval" fill="#565C67" fill-rule="nonzero" opacity="0.400000006" cx="15" cy="15" r="15"></circle>
        <path d="M23.8202513,11.5886808 C23.8202513,11.5886808 23.6440278,10.412934 23.1051359,9.89529808 C22.4206844,9.21563989 21.652702,9.21213219 21.3014886,9.17254532 C18.7825495,9 15.0041404,9 15.0041404,9 L14.9963865,9 C14.9963865,9 11.2179779,9 8.69903881,9.17254532 C8.347826,9.21213219 7.58019637,9.21563989 6.89539175,9.89529808 C6.35650019,10.412934 6.18027666,11.5886808 6.18027666,11.5886808 C6.18027666,11.5886808 6,12.9693774 6,14.3500741 L6,15.6444143 C6,17.025111 6.18027666,18.4058071 6.18027666,18.4058071 C6.18027666,18.4058071 6.35650019,19.5815542 6.89539175,20.0993572 C7.58019637,20.7788482 8.47964137,20.7574685 8.8801971,20.8286238 C10.3202957,20.9595782 15.000264,21 15.000264,21 C15.000264,21 18.7825495,20.9946548 21.3014886,20.821943 C21.6539357,20.7821891 22.420508,20.7788482 23.1051359,20.09919 C23.6440278,19.5815542 23.8202513,18.4058071 23.8202513,18.4058071 C23.8202513,18.4058071 23.9999995,17.0251105 23.9999995,15.6444138 L23.9999995,14.3500741 C24.0003512,12.9693774 23.8202513,11.5886808 23.8202513,11.5886808 Z M13.1411058,17.2130234 L13.1411058,12.41917 L18.0048751,14.8244483 L13.1411058,17.2130234 Z" id="Youtube" fill="#FFFFFF"></path>
    </g>
</svg>