<?xml version="1.0" encoding="UTF-8"?>
<svg width="24px" height="24px" viewBox="0 0 24 24" version="1.1" xmlns="http://www.w3.org/2000/svg" xmlns:xlink="http://www.w3.org/1999/xlink">
    <!-- Generator: Sketch 55.2 (78181) - https://sketchapp.com -->
    <title>ze</title>
    <desc>Created with Sketch.</desc>
    <g id="ze" stroke="none" stroke-width="1" fill="none" fill-rule="evenodd">
        <circle id="Oval" fill="#565C67" fill-rule="nonzero" opacity="0.400000006" cx="12" cy="12" r="12"></circle>
        <path d="M24,12.1325 L24,11.9999 L24,11.8678 C18.6863823,11.707 16.2564254,11.5744 14.3184813,9.68156 C12.4260476,7.744 12.2930171,5.31418 12.1325804,0.000366210999 L11.99995,0.000366210999 L11.8674196,0.000366210999 C11.7069829,5.31418 11.5739524,7.744 9.68151868,9.68156 C7.74357457,11.5744 5.3136177,11.707 0,11.8678 L0,11.9999 L0,12.1325 C5.3136177,12.2933 7.74357457,12.4259 9.68151868,14.3183 C11.5739524,16.2564 11.7069829,18.6862 11.8674196,24 L11.99995,24 L12.1325804,24 C12.2930171,18.6862 12.4260476,16.2564 14.3184813,14.3183 C16.2564254,12.4259 18.6863823,12.2933 24,12.1325 Z" id="Zen" fill="#FFFFFF"></path>
    </g>
</svg>