<svg width="111" height="36" xmlns="http://www.w3.org/2000/svg">
  <g fill="none" fill-rule="evenodd">
    <rect stroke-opacity=".08" stroke="#565C67" fill="#191A1D" x=".5" y=".5" width="110" height="35" rx="4"/>
    <path d="M42.151 27.508h1.857l-4.064-11.235h-1.88L34 27.508h1.794l1.037-2.982h4.29l1.03 2.982zm-3.237-9.196h.133l1.63 4.75h-3.4l1.637-4.75zm10.016.577c-1.154 0-2.153.576-2.668 1.541h-.124V19.03h-1.615v11.227H46.2v-4.033h.133c.444.896 1.404 1.425 2.613 1.425 2.145 0 3.51-1.69 3.51-4.384 0-2.694-1.365-4.375-3.526-4.375zm-.476 7.256c-1.404 0-2.285-1.105-2.285-2.873 0-1.775.881-2.88 2.293-2.88 1.42 0 2.27 1.082 2.27 2.872 0 1.8-.85 2.881-2.278 2.881zm9.174-7.256c-1.155 0-2.153.576-2.668 1.541h-.125V19.03h-1.614v11.227h1.677v-4.033h.132c.445.896 1.404 1.425 2.613 1.425 2.145 0 3.51-1.69 3.51-4.384 0-2.694-1.365-4.375-3.525-4.375zm-.476 7.256c-1.404 0-2.285-1.105-2.285-2.873 0-1.775.88-2.88 2.293-2.88 1.42 0 2.27 1.082 2.27 2.872 0 1.8-.85 2.881-2.278 2.881zm7.552-1.658c.124 2.009 1.801 3.293 4.297 3.293 2.668 0 4.337-1.347 4.337-3.496 0-1.69-.951-2.623-3.26-3.16l-1.24-.304c-1.467-.343-2.06-.802-2.06-1.604 0-1.013.92-1.674 2.301-1.674 1.31 0 2.216.646 2.38 1.681h1.7C73.058 17.331 71.389 16 69.103 16c-2.457 0-4.095 1.331-4.095 3.332 0 1.651.928 2.632 2.964 3.107l1.45.35c1.49.35 2.146.865 2.146 1.721 0 .997-1.03 1.721-2.434 1.721-1.505 0-2.55-.677-2.699-1.744h-1.731zm10.078-7.514v2.095h-1.396v1.409h1.396v4.788c0 1.636.74 2.29 2.605 2.29.328 0 .632-.04.897-.086v-1.394c-.234.024-.366.04-.624.04-.834 0-1.201-.39-1.201-1.278v-4.36h1.903v-1.41H76.46v-2.094h-1.677zm7.738 9.211c-1.458 0-2.277-1.066-2.277-2.92 0-1.837.819-2.912 2.277-2.912 1.451 0 2.278 1.075 2.278 2.912 0 1.846-.827 2.92-2.278 2.92zm0 1.487c2.48 0 4.002-1.658 4.002-4.407 0-2.732-1.53-4.399-4.002-4.399-2.48 0-4.01 1.667-4.01 4.4 0 2.748 1.522 4.406 4.01 4.406zm4.767-.163h1.677V22.5c0-1.19.897-1.993 2.16-1.993.281 0 .796.055.928.101v-1.65c-.179-.047-.499-.07-.74-.07-1.108 0-2.044.607-2.286 1.44h-.125v-1.3h-1.614v8.479zm8.541-7.218c1.24 0 2.052.864 2.09 2.196h-4.29c.094-1.324.96-2.196 2.2-2.196zm2.083 4.929c-.312.662-1.006 1.028-2.02 1.028-1.342 0-2.208-.943-2.262-2.43v-.093h5.998v-.584c0-2.663-1.427-4.275-3.79-4.275-2.396 0-3.917 1.721-3.917 4.43 0 2.71 1.49 4.376 3.924 4.376 1.942 0 3.3-.934 3.682-2.452H97.91z" fill="#FFF"/>
    <g fill="#FFF">
      <path d="M24.708 18.432c-.025-2.716 2.227-4.037 2.33-4.098-1.275-1.857-3.252-2.11-3.947-2.13-1.66-.175-3.271.991-4.117.991-.863 0-2.165-.975-3.569-.946-1.806.028-3.496 1.072-4.423 2.693-1.913 3.306-.487 8.163 1.346 10.835.917 1.31 1.988 2.77 3.39 2.719 1.372-.056 1.884-.873 3.54-.873 1.64 0 2.121.873 3.551.839 1.472-.022 2.4-1.314 3.284-2.635 1.06-1.498 1.485-2.977 1.502-3.053-.034-.01-2.859-1.087-2.887-4.342M22.006 10.446C22.744 9.525 23.25 8.272 23.11 7c-1.068.047-2.404.737-3.173 1.638-.68.794-1.288 2.095-1.13 3.319 1.199.089 2.43-.605 3.2-1.511"/>
    </g>
    <path d="M36.925 11.077a2.12 2.12 0 0 1-1.005-.231 1.776 1.776 0 0 1-.675-.595l.469-.581c.154.177.338.322.553.434.215.112.42.168.616.168.266 0 .483-.064.651-.193a.636.636 0 0 0 .252-.535c0-.2-.076-.358-.227-.473-.152-.114-.366-.171-.641-.171h-.504v-.805h.476a.74.74 0 0 0 .5-.179.586.586 0 0 0 .207-.465.57.57 0 0 0-.193-.458c-.128-.11-.302-.165-.521-.165-.397 0-.728.177-.994.532l-.497-.574a1.82 1.82 0 0 1 .679-.553c.285-.14.588-.21.91-.21.448 0 .805.119 1.071.357.266.238.399.567.399.987 0 .205-.057.406-.172.602a1.306 1.306 0 0 1-.486.476v.021c.28.07.491.206.633.41.143.203.214.453.214.752 0 .434-.17.784-.511 1.05-.336.266-.737.399-1.204.399zm2.863-2.415l-.203-.588c.34-.2.712-.301 1.113-.301.439 0 .758.107.959.322.2.215.301.544.301.987V11h-.7v-.364c-.187.27-.497.406-.931.406-.299 0-.538-.087-.718-.262-.18-.176-.269-.41-.269-.704 0-.327.105-.579.315-.756.21-.177.488-.266.833-.266.285 0 .523.068.714.203.01-.28-.031-.485-.122-.616-.092-.13-.247-.196-.466-.196-.243 0-.518.072-.826.217zm.805 1.701c.27 0 .474-.096.609-.287v-.322c-.13-.103-.315-.154-.553-.154a.59.59 0 0 0-.364.105.34.34 0 0 0-.14.287c0 .112.042.202.126.27a.497.497 0 0 0 .322.101zm2.996.637h-.805V7.85h2.114v.756h-1.309V11zm2.618 1.4h-.805V7.85h.805v.301c.103-.112.243-.203.42-.273s.362-.105.553-.105c.434 0 .78.15 1.036.448.261.303.392.688.392 1.155 0 .49-.154.896-.462 1.218-.308.322-.71.483-1.204.483-.317 0-.562-.051-.735-.154V12.4zm.721-3.871c-.28 0-.52.114-.721.343v1.274c.191.121.413.182.665.182.266 0 .48-.086.64-.259.162-.173.242-.397.242-.672 0-.261-.073-.471-.22-.63-.148-.159-.35-.238-.606-.238zm4.501-.679h.917L51.107 11c-.224.546-.425.915-.602 1.106a.795.795 0 0 1-.616.294c-.224 0-.45-.082-.679-.245l.259-.609a.643.643 0 0 0 .329.112c.191 0 .352-.163.483-.49l.07-.168-1.456-3.15h.966l.735 1.722c.01.023.06.175.154.455.028-.173.065-.327.112-.462l.567-1.715zm2.513 3.227c-.275 0-.544-.049-.805-.147-.261-.103-.45-.229-.567-.378l.413-.504c.093.107.226.198.399.273.173.075.336.112.49.112.205 0 .364-.035.476-.105.112-.07.168-.163.168-.28a.312.312 0 0 0-.126-.259.557.557 0 0 0-.35-.098h-.588v-.539h.553a.427.427 0 0 0 .304-.108.363.363 0 0 0 .116-.277c0-.229-.184-.343-.553-.343-.29 0-.576.121-.861.364l-.336-.483c.299-.355.749-.532 1.351-.532.406 0 .717.078.934.235a.768.768 0 0 1 .326.661.649.649 0 0 1-.154.42.902.902 0 0 1-.427.28v.014a.85.85 0 0 1 .49.263.702.702 0 0 1 .175.479c0 .294-.13.526-.389.697-.259.17-.605.255-1.039.255zm4.466-2.072L56.938 11h-.805V7.85h.805v1.995l1.47-1.995h.805V11h-.805V9.005zm2.408-.35H59.78V7.85h2.87v.805h-1.029V11h-.805V8.655zm4.879 1.463l.231.567c-.313.261-.714.392-1.204.392-.504 0-.915-.152-1.232-.455-.308-.299-.462-.698-.462-1.197 0-.467.152-.859.455-1.176.303-.317.707-.476 1.211-.476.415 0 .768.138 1.057.413.29.275.434.625.434 1.05 0 .187-.016.331-.049.434h-2.275a.791.791 0 0 0 .304.539c.17.13.384.196.641.196.35 0 .646-.096.889-.287zm-1.036-1.673c-.457 0-.733.229-.826.686h1.547a.634.634 0 0 0-.192-.494.729.729 0 0 0-.529-.192zM68.32 11V7.85c.042 0 .22-.006.536-.018.315-.011.549-.017.703-.017.952 0 1.428.275 1.428.826a.7.7 0 0 1-.168.466.65.65 0 0 1-.42.234v.014c.448.107.672.35.672.728 0 .635-.5.952-1.498.952-.145 0-.366-.007-.665-.021a10.6 10.6 0 0 1-.472-.01A2.575 2.575 0 0 0 68.32 11zm1.309-1.337h-.504v.7c.28.019.457.028.532.028.177 0 .316-.033.416-.098.1-.065.151-.154.151-.266 0-.243-.198-.364-.595-.364zm0-1.197c-.187 0-.355.005-.504.014v.693h.525a.576.576 0 0 0 .35-.098.313.313 0 0 0 .133-.266c0-.229-.168-.343-.504-.343z" fill="#FFF"/>
  </g>
</svg>
