<svg width="111px" height="36px" viewBox="0 0 111 36" version="1.1" xmlns="http://www.w3.org/2000/svg" xmlns:xlink="http://www.w3.org/1999/xlink">
    <g id="New-Layout" stroke="none" stroke-width="1" fill="none" fill-rule="evenodd">
        <g id="UPD-Main-Authorised-Screen-1920" transform="translate(-770.000000, -2792.000000)">
            <g id="Footer" transform="translate(0.000000, 2678.000000)">
                <g id="Group" transform="translate(643.000000, 114.000000)">
                    <g id="-Symbols/Stores/1440/Google-Play/Normal" transform="translate(127.000000, 0.000000)">
                        <rect id="BG" stroke-opacity="0.08" stroke="#565C67" stroke-width="1" fill="#191A1D" x="0.5" y="0.5" width="110" height="35" rx="4"></rect>
                        <g id="googleplay" stroke-width="1" transform="translate(33.711111, 16.545455)" fill="#FFFFFF">
                            <g id="big-P" transform="translate(46.579691, 0.371901)">
                                <path d="M0.373234701,2.61419636e-07 L4.60518574,0 C4.60518574,0 7.04140329,0.413013301 7.0414031,3.20056354 C7.04140291,5.98811377 4.60518574,6.40112707 4.60518574,6.40112707 L0.373234701,6.40112733 L0.373234701,2.61419636e-07 Z M1.19435104,1.54836541 L1.19435104,4.98347107 L4.06720617,4.98347107 C4.06720617,4.98347107 5.37457969,4.98347107 5.37457969,3.26591824 C5.37457969,1.54836541 4.06720617,1.54836541 4.06720617,1.54836541 L1.19435104,1.54836541 Z" id="Combined-Shape"></path>
                                <rect id="Rectangle-6" x="0" y="0" width="1.4929388" height="10.4132231"></rect>
                            </g>
                            <rect id="y" x="54.4922663" y="0.371900826" width="1.4929388" height="10.4132231"></rect>
                            <path d="M61.5186349,10.0405884 C61.1074269,10.3786527 60.4500085,10.6968273 59.4116813,10.7614443 C57.0329298,10.9094784 57.0316904,8.74656978 57.0316904,8.60071507 C57.0316904,8.45486036 56.9143621,6.69098254 58.8065964,6.41060418 C60.1464845,6.21206871 61.0849329,6.54286696 61.5186349,6.75290457 L61.5186349,6.44694578 C61.4122793,6.04173544 61.0822314,5.29718976 60.0927617,5.29718976 C58.7333775,5.29718976 58.4331795,6.02951479 58.4331795,6.02951479 L57.1896227,5.29718976 C57.1896227,5.29718976 57.8854946,3.86776859 59.9735016,3.8677686 C62.5697357,3.8677686 63.0117286,5.65210264 63.0117286,6.25306386 C63.0117286,6.25598906 63.0116768,6.25889534 63.0115737,6.26178282 L63.0115737,10.7817827 L61.5186349,10.7817827 L61.5186349,10.0405884 Z M61.411986,7.81013527 C61.411986,7.81013527 58.535819,7.03767842 58.4358402,8.64767481 C58.3358614,10.2576712 61.1951163,9.48459696 61.4505852,8.34328997 C61.4505851,7.98035978 61.411986,7.81013527 61.411986,7.81013527 Z" id="a"></path>
                            <path d="M65.8129717,10.3900478 L63.1513114,4.09090909 L64.6442502,4.09090909 L66.5594411,8.62343833 L68.4594086,4.12693698 L69.9523474,4.12693698 L65.9132482,13.6859504 L64.4203093,13.6859504 L65.8129717,10.3900478 Z" id="y"></path>
                            <path d="M43.2373998,6.5250488 L38.5156849,8.46945738 C38.5156849,8.46945738 38.8206306,9.54490672 40.2402481,9.55211483 C41.3518615,9.55775904 41.9793737,8.57034906 41.9793737,8.57034906 L43.1773361,9.37874531 C43.1773361,9.37874531 42.2106461,10.9365904 40.2308121,10.9365904 C37.7978692,10.9365904 36.7262946,8.81678273 36.7262946,7.44010971 C36.7262946,6.11372078 37.5768492,3.8677686 40.0798363,3.8677686 C42.5828234,3.8677686 43.2373998,6.5250488 43.2373998,6.5250488 Z M41.4408871,5.97422625 C41.4408871,5.97422625 40.8468298,5.07361299 39.935756,5.23970598 C38.0085458,5.59104535 38.2510689,7.27152093 38.2510689,7.27152093 L41.4408871,5.97422625 Z" id="e"></path>
                            <rect id="i" x="34.4868863" y="0.371900826" width="1.57943955" height="10.3913466"></rect>
                            <path d="M31.9593332,4.09360633 L33.4193712,4.1061744 L33.4193712,10.6627956 C33.4193712,12.3379943 32.4184304,14.1063273 30.0619733,14.1063273 C27.7055163,14.1063273 26.9444674,12.0259382 26.9444674,12.0259382 L28.285376,11.4640207 C28.285376,11.4640207 28.6943446,12.746163 30.1316545,12.7461613 C31.7684358,12.7461594 31.9595146,11.2623727 31.9595146,10.7544681 L31.9595146,10.0429229 C31.9595146,10.0429229 31.3931738,10.9261403 29.9864854,10.9261422 C28.4613482,10.9261443 26.6489576,9.62411192 26.6489576,7.40440482 C26.6489576,5.18469772 28.3555562,3.91505016 30.0041325,3.86886639 C31.324627,3.83187363 31.9593332,4.74208585 31.9593332,4.74208585 L31.9593332,4.09360633 Z M30.1111494,9.59375872 C31.1758689,9.59375872 32.0389947,8.6219315 32.0389947,7.42312187 C32.0389947,6.22431224 31.1758689,5.25248502 30.1111494,5.25248502 C29.0464298,5.25248502 28.183304,6.22431224 28.183304,7.42312187 C28.183304,8.6219315 29.0464298,9.59375872 30.1111494,9.59375872 Z" id="g"></path>
                            <path d="M22.4394148,10.9338843 C20.476739,10.9338843 18.8856759,9.35208042 18.8856759,7.40082645 C18.8856759,5.44957247 20.476739,3.8677686 22.4394148,3.8677686 C24.4020907,3.8677686 25.9931538,5.44957247 25.9931538,7.40082645 C25.9931538,9.35208042 24.4020907,10.9338843 22.4394148,10.9338843 Z M22.4161878,9.54837141 C23.5193912,9.54837141 24.4137143,8.58688278 24.4137143,7.40082645 C24.4137143,6.21477011 23.5193912,5.25328148 22.4161878,5.25328148 C21.3129844,5.25328148 20.4186613,6.21477011 20.4186613,7.40082645 C20.4186613,8.58688278 21.3129844,9.54837141 22.4161878,9.54837141 Z" id="o"></path>
                            <path d="M14.75078,10.9338843 C12.7881042,10.9338843 11.197041,9.35208042 11.197041,7.40082645 C11.197041,5.44957247 12.7881042,3.8677686 14.75078,3.8677686 C16.7134559,3.8677686 18.304519,5.44957247 18.304519,7.40082645 C18.304519,9.35208042 16.7134559,10.9338843 14.75078,10.9338843 Z M14.727553,9.54837141 C15.8307564,9.54837141 16.7250794,8.58688278 16.7250794,7.40082645 C16.7250794,6.21477011 15.8307564,5.25328148 14.727553,5.25328148 C13.6243495,5.25328148 12.7300265,6.21477011 12.7300265,7.40082645 C12.7300265,8.58688278 13.6243495,9.54837141 14.727553,9.54837141 Z" id="o"></path>
                            <g id="big-g">
                                <polygon id="Rectangle-1" points="5.57449253 4.98784638 10.2663571 4.98784638 10.219903 6.46572679 5.57449253 6.46572679"></polygon>
                                <path d="M9.34307322,1.5105399 L8.26944323,2.57792185 C7.59978798,1.89722762 6.64867781,1.52406417 5.55126547,1.52406417 C3.35768659,1.52406417 1.57943955,3.29196263 1.57943955,5.47277589 C1.57943955,7.65358915 3.35768659,9.4214876 5.55126547,9.4214876 C7.74484436,9.4214876 9.30225294,8.160725 9.29898664,5.47277589 C9.30269666,5.30666239 9.29880573,5.14496527 9.28764711,4.98784638 L10.6581709,4.98784638 C10.6583264,5.00612043 10.6584043,5.02443165 10.6584043,5.0427798 C11.173936,8.80621525 8.59582392,10.973244 5.50481137,10.9455518 C2.46459093,10.9412179 0,8.49530655 0,5.47277589 C0,2.45024523 2.464588,0 5.50481137,0 C7.09395083,0 8.42985498,0.551973171 9.34307322,1.5105399 Z" id="Oval-1"></path>
                            </g>
                        </g>
                        <path d="M34.889,11.875 L34.084,11.875 L34.084,10.195 L34.609,10.195 C34.7490007,10.0316658 34.9006659,9.6700028 35.064,9.11 C35.2320008,8.53599713 35.3323332,7.85933723 35.365,7.08 L35.414,6.1 L38.452,6.1 L38.452,10.195 L39.117,10.195 L39.117,11.875 L38.312,11.875 L38.312,11 L34.889,11 L34.889,11.875 Z M36.247,6.905 L36.17,7.759 C36.1279998,8.34700294 36.0416673,8.86266445 35.911,9.306 C35.775666,9.76800231 35.6566672,10.0643327 35.554,10.195 L37.598,10.195 L37.598,6.905 L36.247,6.905 Z M39.607,8.55 C39.607,7.83599643 39.8449976,7.23633576 40.321,6.751 C40.8063358,6.26566424 41.417663,6.023 42.155,6.023 C42.892337,6.023 43.5013309,6.256331 43.982,6.723 C44.4673358,7.19433569 44.71,7.8033296 44.71,8.55 C44.71,9.28267033 44.4673358,9.88699762 43.982,10.363 C43.4966642,10.8390024 42.8876703,11.077 42.155,11.077 C41.417663,11.077 40.8086691,10.843669 40.328,10.377 C39.8473309,9.910331 39.607,9.30133709 39.607,8.55 Z M40.517,8.55 C40.517,9.04466914 40.6733318,9.4553317 40.986,9.782 C41.2986682,10.1086683 41.688331,10.272 42.155,10.272 C42.6590025,10.272 43.0579985,10.1086683 43.352,9.782 C43.6506682,9.4553317 43.8,9.04466914 43.8,8.55 C43.8,8.05066417 43.6413349,7.6376683 43.324,7.311 C43.0066651,6.98899839 42.6170023,6.828 42.155,6.828 C41.6836643,6.828 41.2916682,6.98899839 40.979,7.311 C40.6709985,7.63300161 40.517,8.04599748 40.517,8.55 Z M49.106,9.88 L49.435,10.524 C49.2809992,10.6873341 49.0605014,10.8203328 48.7735,10.923 C48.4864986,11.0256672 48.1843349,11.077 47.867,11.077 C47.1203296,11.077 46.5113357,10.8460023 46.04,10.384 C45.573331,9.92199769 45.34,9.31067047 45.34,8.55 C45.34,7.82199636 45.5616645,7.21766907 46.005,6.737 C46.4436689,6.26099762 47.0573294,6.023 47.846,6.023 C48.4713365,6.023 48.9683315,6.18866501 49.337,6.52 L48.952,7.157 C48.620665,6.93766557 48.252002,6.828 47.846,6.828 C47.379331,6.828 46.9966682,6.98433177 46.698,7.297 C46.3993318,7.60966823 46.25,8.02733072 46.25,8.55 C46.25,9.0633359 46.4063318,9.47866508 46.719,9.796 C47.0363349,10.1133349 47.4446642,10.272 47.944,10.272 C48.3733355,10.272 48.7606649,10.1413346 49.106,9.88 Z M51.269,6.905 L49.68,6.905 L49.68,6.1 L53.719,6.1 L53.719,6.905 L52.13,6.905 L52.13,11 L51.269,11 L51.269,6.905 Z M57.618,6.1 L58.486,6.1 L56.82,9.859 C56.6473325,10.251002 56.4548344,10.5391657 56.2425,10.7235 C56.0301656,10.9078343 55.7793348,11 55.49,11 C55.2006652,11 54.9766675,10.9346673 54.818,10.804 L55.119,10.076 C55.2403339,10.1553337 55.3616661,10.195 55.483,10.195 C55.7023344,10.195 55.8633328,10.0806678 55.966,9.852 L56.036,9.684 L53.873,6.1 L54.846,6.1 L56.449,8.837 L57.618,6.1 Z M63.155,11 L62.294,11 L62.294,6.905 L60.11,6.905 L60.11,11 L59.249,11 L59.249,6.1 L63.155,6.1 L63.155,11 Z M68.468,11 L67.614,11 L67.614,8.907 L65.374,8.907 L65.374,11 L64.513,11 L64.513,6.1 L65.374,6.1 L65.374,8.102 L67.614,8.102 L67.614,6.1 L68.468,6.1 L68.468,11 Z M69.462,8.55 C69.462,7.83599643 69.6999976,7.23633576 70.176,6.751 C70.6613358,6.26566424 71.272663,6.023 72.01,6.023 C72.747337,6.023 73.3563309,6.256331 73.837,6.723 C74.3223358,7.19433569 74.565,7.8033296 74.565,8.55 C74.565,9.28267033 74.3223358,9.88699762 73.837,10.363 C73.3516642,10.8390024 72.7426703,11.077 72.01,11.077 C71.272663,11.077 70.6636691,10.843669 70.183,10.377 C69.7023309,9.910331 69.462,9.30133709 69.462,8.55 Z M70.372,8.55 C70.372,9.04466914 70.5283318,9.4553317 70.841,9.782 C71.1536682,10.1086683 71.543331,10.272 72.01,10.272 C72.5140025,10.272 72.9129985,10.1086683 73.207,9.782 C73.5056682,9.4553317 73.655,9.04466914 73.655,8.55 C73.655,8.05066417 73.4963349,7.6376683 73.179,7.311 C72.8616651,6.98899839 72.4720023,6.828 72.01,6.828 C71.5386643,6.828 71.1466682,6.98899839 70.834,7.311 C70.5259985,7.63300161 70.372,8.04599748 70.372,8.55 Z M77.043,10.993 L77.043,6.114 C77.5470025,6.09066655 78.0183311,6.079 78.457,6.079 C78.998336,6.079 79.4019987,6.18633226 79.668,6.401 C79.9340013,6.61566774 80.067,6.91199811 80.067,7.29 C80.067,7.81733597 79.833669,8.18833226 79.367,8.403 L79.367,8.417 C79.6330013,8.48700035 79.8429992,8.61883236 79.997,8.8125 C80.1510008,9.00616764 80.228,9.25466515 80.228,9.558 C80.228,10.0340024 80.0646683,10.3979987 79.738,10.65 C79.4113317,10.9020013 78.9680028,11.028 78.408,11.028 C77.8479972,11.028 77.3930017,11.0163334 77.043,10.993 Z M78.513,8.893 L77.904,8.893 L77.904,10.188 C78.1233344,10.2113334 78.3123325,10.223 78.471,10.223 C79.0683363,10.223 79.367,9.98733569 79.367,9.516 C79.367,9.31066564 79.2923341,9.15550053 79.143,9.0505 C78.9936659,8.94549948 78.783668,8.893 78.513,8.893 Z M78.443,6.884 C78.2376656,6.884 78.0580008,6.89099993 77.904,6.905 L77.904,8.144 L78.485,8.144 C78.7043344,8.144 78.8804993,8.08800056 79.0135,7.976 C79.1465007,7.86399944 79.213,7.70300105 79.213,7.493 C79.213,7.29699902 79.145334,7.14650053 79.01,7.0415 C78.874666,6.93649948 78.6856679,6.884 78.443,6.884 Z" id="ДОСТУПНО-В" fill="#FFFFFF"></path>
                        <g id="google-play-(1)" stroke-width="1" transform="translate(10.000000, 8.000000)">
                            <path d="M17.0412451,8.49050781 L13.6157915,6.53664062 L8.9226958,9.99992188 L13.6157124,13.4632031 L17.0528335,11.5026172 C17.5887466,11.1810547 17.9085542,10.6191406 17.9085542,10 C17.9085542,9.38085938 17.588707,8.81898437 17.0412451,8.49050781 Z" id="Path" fill="#FF9100" fill-rule="nonzero"></path>
                            <path d="M10.1092192,10 C10.1040776,10.0065234 5.95974902,15.2691797 5.95638721,15.2734375 L0.557705566,19.4726562 C0.225439453,19.1444922 0.0237700195,18.6992578 0.0237700195,18.2069922 L0.0237700195,1.76394531 C0.0237700195,1.27179688 0.225439453,0.826445313 0.557705566,0.498359375 L5.95638721,4.7265625 C5.95974902,4.73082031 10.1040776,9.99347656 10.1092192,10 Z" id="Path" fill="#25D9F8" fill-rule="nonzero"></path>
                            <path d="M13.6213682,6.53121094 L10.1092192,10 L0.557705566,0.498398438 C0.676318359,0.392890625 0.795010254,0.310859375 0.925527832,0.228828125 C1.49501953,-0.0875390625 2.17137744,-0.075859375 2.72908301,0.264023437 L8.9226958,3.859375 L13.6213682,6.53121094 Z" id="Path" fill="#7FE881" fill-rule="nonzero"></path>
                            <path d="M13.6213682,13.4687109 L8.9226958,16.140625 L2.71721777,19.71875 C2.43245215,19.8827734 2.12395605,19.9765234 1.80355518,19.9765234 C1.50692432,19.9765234 1.21029346,19.8944922 0.925527832,19.7421484 C0.795010254,19.6601172 0.676318359,19.578125 0.557705566,19.4726563 L10.1092192,10 L13.6213682,13.4687109 Z" id="Path" fill="#FF637B" fill-rule="nonzero"></path>
                        </g>
                    </g>
                </g>
            </g>
        </g>
    </g>
</svg>