<?xml version="1.0" encoding="UTF-8"?>
<svg width="30px" height="30px" viewBox="0 0 30 30" version="1.1" xmlns="http://www.w3.org/2000/svg" xmlns:xlink="http://www.w3.org/1999/xlink">
    <!-- Generator: Sketch 55.2 (78181) - https://sketchapp.com -->
    <title>tw</title>
    <desc>Created with Sketch.</desc>
    <g id="tw" stroke="none" stroke-width="1" fill="none" fill-rule="evenodd">
        <circle id="Oval" fill="#565C67" fill-rule="nonzero" opacity="0.400000006" cx="15" cy="15" r="15"></circle>
        <path d="M24,9.65738462 C23.405,9.93846154 22.771,10.1247692 22.11,10.2152308 C22.79,9.778 23.309,9.09092308 23.553,8.26276923 C22.919,8.66984615 22.219,8.95738462 21.473,9.11784615 C20.871,8.42753846 20.013,8 19.077,8 C17.261,8 15.799,9.58738462 15.799,11.5333846 C15.799,11.8133846 15.821,12.0826154 15.875,12.3389231 C13.148,12.1956923 10.735,10.7881538 9.114,8.644 C8.831,9.17276923 8.665,9.778 8.665,10.4295385 C8.665,11.6529231 9.25,12.7373846 10.122,13.3652308 C9.595,13.3544615 9.078,13.1896923 8.64,12.9301538 C8.64,12.9409231 8.64,12.9549231 8.64,12.9689231 C8.64,14.6855385 9.777,16.1113846 11.268,16.4398462 C11.001,16.5184615 10.71,16.5561538 10.408,16.5561538 C10.198,16.5561538 9.986,16.5432308 9.787,16.4958462 C10.212,17.8947692 11.418,18.9232308 12.852,18.9566154 C11.736,19.8967692 10.319,20.4632308 8.785,20.4632308 C8.516,20.4632308 8.258,20.4503077 8,20.4147692 C9.453,21.4238462 11.175,22 13.032,22 C19.068,22 22.368,16.6153846 22.368,11.948 C22.368,11.7918462 22.363,11.6410769 22.356,11.4913846 C23.007,10.9938462 23.554,10.3724615 24,9.65738462 Z" id="Twitter" fill="#FFFFFF"></path>
    </g>
</svg>