<?xml version="1.0" encoding="UTF-8"?>
<svg width="30px" height="30px" viewBox="0 0 30 30" version="1.1" xmlns="http://www.w3.org/2000/svg" xmlns:xlink="http://www.w3.org/1999/xlink">
    <!-- Generator: Sketch 55.2 (78181) - https://sketchapp.com -->
    <title>vk</title>
    <desc>Created with Sketch.</desc>
    <g id="vk" stroke="none" stroke-width="1" fill="none" fill-rule="evenodd">
        <circle id="Oval" fill="#565C67" fill-rule="nonzero" opacity="0.400000006" cx="15" cy="15" r="15"></circle>
        <path d="M20.45286,15.9031277 C20.45286,15.9031277 22.824585,12.7287694 23.0602618,11.6855454 C23.1387777,11.3129923 22.9660049,11.1042471 22.5575531,11.1042471 L20.5000219,11.1042471 C20.0287984,11.1042471 19.8560256,11.2979923 19.7146724,11.5811728 C19.7146724,11.5811728 18.6022313,13.8302363 17.2486894,15.247457 C16.8141774,15.7056166 16.5932506,15.8435039 16.3534053,15.8435039 C16.1599296,15.8435039 16.0706989,15.6904913 16.0706989,15.2772059 L16.0706989,11.6557336 C16.0706989,11.1490589 16.0078596,11 15.5681225,11 L12.2696948,11 C12.0183405,11 11.8612441,11.1386405 11.8612441,11.3278041 C11.8612441,11.8049808 12.630917,11.9127426 12.630917,13.2056324 L12.630917,15.873316 C12.630917,16.4098651 12.5994979,16.6184851 12.332467,16.6184851 C11.625699,16.6184851 9.94506553,14.3085426 9.00268607,11.6855454 C8.81417056,11.1490589 8.60997827,11 8.07591702,11 L6.01838485,11 C5.71993488,11 5.5,11.1936824 5.5,11.4768002 C5.5,11.9984122 6.14399578,14.4127897 8.67281686,17.6468342 C10.3691266,19.8226552 12.5994979,21 14.6099345,21 C15.8350868,21 16.1335373,20.8063177 16.1335373,20.3144553 L16.1335373,18.6453094 C16.1335373,18.2280071 16.3063102,18.0491993 16.5575979,18.0491993 C16.8403053,18.0491993 17.3393098,18.1353711 18.5052623,19.2265451 C19.8874452,20.4784509 19.9817032,21 20.7356996,21 L23.0445187,21 C23.2801309,21 23.5,20.895691 23.5,20.5231376 C23.5,20.0312742 22.824585,19.1520472 21.7879468,18.1087599 C21.3638862,17.5722736 20.6727947,16.9911007 20.45286,16.7228573 C20.1387996,16.4098651 20.232991,16.2309317 20.45286,15.9031277" id="VK" fill="#FFFFFF"></path>
    </g>
</svg>