<?xml version="1.0" encoding="UTF-8"?>
<svg width="120px" height="56px" viewBox="0 0 120 56" version="1.1" xmlns="http://www.w3.org/2000/svg" xmlns:xlink="http://www.w3.org/1999/xlink">
    <!-- Generator: Sketch 55.2 (78181) - https://sketchapp.com -->
    <title>Combined Shape</title>
    <desc>Created with Sketch.</desc>
    <g id="Page-1" stroke="none" stroke-width="1" fill="none" fill-rule="evenodd">
        <path d="M40.8805369,36.5217391 L40.9208054,36.6028986 L44.1422819,45.8713043 L37.2241611,45.8713043 L34.1395973,37.0330435 L23.6295302,37.0330435 L23.6295302,36.9924638 C23.6295302,36.9924638 23.8308725,36.3756522 24.0241611,35.8724638 C24.2174497,35.3692754 24.2174497,34.9147826 23.7986577,34.8336232 C23.3798658,34.7524638 23.5006711,34.3872464 23.7422819,34.2168116 C23.9838926,34.0463768 24.5959732,33.7866667 26.1583893,33.0643478 C27.7208054,32.342029 26.714094,31.8307246 26.2147651,31.4411594 C25.9560244,31.2034386 25.8451093,30.8432833 25.9248322,30.4997101 L31.8442953,30.4997101 L27.8174497,18.9913043 L24.0402685,29.826087 C24.0402685,29.826087 23.6536913,31.0921739 24.1530201,31.4492754 C24.652349,31.8063768 25.6510067,32.3176812 24.0966443,33.0724638 C22.5422819,33.8272464 21.9302013,34.0626087 21.6805369,34.2249275 C21.4308725,34.3872464 21.3181208,34.7605797 21.7369128,34.8417391 C22.1557047,34.9228986 22.1557047,35.3773913 21.9624161,35.8805797 L21.6644295,36.6434783 L18.442953,45.8631884 L11.5248322,45.8631884 L14.7463087,36.6597101 L15.052349,35.8481159 C15.2456376,35.3449275 15.2456376,34.8904348 14.8268456,34.8092754 C14.4080537,34.7281159 14.5288591,34.3628986 14.7704698,34.1924638 C15.0120805,34.022029 15.6241611,33.7623188 17.1865772,33.04 C18.7489933,32.3176812 17.8550336,31.9118841 17.242953,31.4168116 C16.6308725,30.9217391 17.1221477,29.7936232 17.1221477,29.7936232 L17.1704698,29.6718841 L24.3785235,9.0573913 L31.304698,9.0573913 L38.5530201,29.8747826 C38.5673159,29.9277413 38.5861797,29.9793388 38.609396,30.0289855 C38.8579295,30.5591827 39.2484295,31.0089179 39.7369128,31.3275362 C40.6791946,31.9849275 42.7248322,32.2852174 41.1624161,33.0481159 C40.5148116,33.3251609 39.8900336,33.6535336 39.2939597,34.0301449 C39.0442953,34.2249275 39.1651007,34.6713043 39.5516779,34.8417391 C39.938255,35.0121739 40.4536913,35.1826087 40.6308725,35.7101449 C40.8080537,36.2376812 40.8805369,36.5217391 40.8805369,36.5217391 Z M49.514094,7.06990022e-13 C51.0584015,7.06990022e-13 52.5394583,0.618215616 53.6314486,1.71864647 C54.723439,2.81907732 55.3369128,4.31158185 55.3369128,5.86782609 L55.3369128,49.8968116 C55.3369128,53.1375225 52.729948,55.7646377 49.514094,55.7646377 L5.82281879,55.7646377 C2.60696477,55.7646377 -5.25801624e-13,53.1375225 -5.25801624e-13,49.8968116 L-5.25801624e-13,5.86782609 C-5.25801624e-13,2.62711522 2.60696477,7.06990022e-13 5.82281879,7.06990022e-13 L49.514094,7.06990022e-13 Z M53.895302,49.8968116 L53.895302,5.85971014 C53.8908697,3.42318548 51.93193,1.44910428 49.514094,1.44463768 L5.82281879,1.44463768 C3.40184222,1.44911418 1.44161074,3.42813255 1.44161074,5.86782609 L1.44161074,49.8968116 C1.44604308,52.3333363 3.40498271,54.3074175 5.82281879,54.3118841 L49.514094,54.3118841 C51.93193,54.3074175 53.8908697,52.3333363 53.895302,49.8968116 Z M72.5395973,13.1721739 L67.5946309,13.1721739 L67.5946309,16.8243478 L66.7892617,16.8243478 L66.7892617,8.92753623 L67.5946309,8.92753623 L67.5946309,12.4092754 L72.5395973,12.4092754 L72.5395973,8.92753623 L73.3449664,8.92753623 L73.3449664,16.8486957 L72.5395973,16.8486957 L72.5395973,13.1721739 Z M79.2563758,8.79768116 C80.3337122,8.76592931 81.3763652,9.18325973 82.1384828,9.95126806 C82.9006004,10.7192764 83.3147298,11.7699886 83.2832215,12.8556522 C83.2832215,15.0968077 81.4803413,16.9136232 79.2563758,16.9136232 C77.0324104,16.9136232 75.2295302,15.0968077 75.2295302,12.8556522 C75.2073658,11.7727185 75.6245002,10.7275293 76.3845382,9.96161671 C77.1445761,9.19570411 78.1817485,8.77534546 79.2563758,8.79768116 Z M79.2563758,16.1588406 C80.1260544,16.1868213 80.9679269,15.8481185 81.5793625,15.2242548 C82.1907981,14.6003912 82.5164194,13.7478695 82.4778523,12.8718841 C82.4778523,11.0789597 81.0355482,9.62550725 79.2563758,9.62550725 C77.4772035,9.62550725 76.0348993,11.0789597 76.0348993,12.8718841 C76.0241317,13.7398861 76.3587768,14.5760781 76.9640919,15.1936969 C77.5694069,15.8113156 78.3949642,16.1589084 79.2563758,16.1588406 Z M85.1919463,8.92753623 L85.9973154,8.92753623 L89.2187919,13.0910145 L92.2630872,8.92753623 L93.0201342,8.92753623 L93.0201342,16.8486957 L92.2147651,16.8486957 L92.2147651,10.1611594 L89.1785235,14.2191304 L89.0657718,14.2191304 L85.9651007,10.1611594 L85.9651007,16.7837681 L85.1597315,16.7837681 L85.1919463,8.92753623 Z M95.5731544,8.92753623 L100.220134,8.92753623 L100.220134,9.73913043 L96.3624161,9.73913043 L96.3624161,12.4173913 L99.8657718,12.4173913 L99.8657718,13.2289855 L96.3543624,13.2289855 L96.3543624,16.0695652 L100.324832,16.0695652 L100.324832,16.8811594 L95.5651007,16.8811594 L95.5731544,8.92753623 Z M109.216107,8.79768116 C110.293444,8.76592931 111.336097,9.18325973 112.098214,9.95126806 C112.860332,10.7192764 113.274461,11.7699886 113.242953,12.8556522 C113.242953,15.0968077 111.440073,16.9136232 109.216107,16.9136232 C106.992142,16.9136232 105.189262,15.0968077 105.189262,12.8556522 C105.167097,11.7727185 105.584232,10.7275293 106.34427,9.96161671 C107.104308,9.19570411 108.14148,8.77534546 109.216107,8.79768116 Z M109.216107,16.1588406 C110.085786,16.1868213 110.927658,15.8481185 111.539094,15.2242548 C112.15053,14.6003912 112.476151,13.7478695 112.437584,12.8718841 C112.437584,11.0789597 110.99528,9.62550725 109.216107,9.62550725 C107.436935,9.62550725 105.994631,11.0789597 105.994631,12.8718841 C105.983863,13.7398861 106.318508,14.5760781 106.923823,15.1936969 C107.529138,15.8113156 108.354696,16.1589084 109.216107,16.1588406 Z M115.167785,8.92753623 L119.830872,8.92753623 L119.830872,9.73913043 L115.973154,9.73913043 L115.973154,12.6608696 L119.500671,12.6608696 L119.500671,13.4724638 L115.973154,13.4724638 L115.973154,16.8486957 L115.167785,16.8486957 L115.167785,8.92753623 Z M117.253691,25.4110145 C117.247158,24.8975043 117.549087,24.4308847 118.018007,24.2297939 C118.486927,24.0287031 119.029937,24.1329808 119.392606,24.4937668 C119.755274,24.8545529 119.86575,25.4003692 119.672268,25.8754693 C119.478787,26.3505693 119.01968,26.6608274 118.510067,26.6608696 C118.178346,26.6652113 117.858725,26.5354497 117.622634,26.3005842 C117.386543,26.0657187 117.253663,25.7453283 117.253691,25.4110145 Z M118.510067,26.457971 C118.928339,26.467839 119.311046,26.2219673 119.478691,25.8356738 C119.646337,25.4493804 119.565668,24.9992896 119.274519,24.6965015 C118.98337,24.3937133 118.539493,24.2982883 118.151074,24.4549823 C117.762654,24.6116763 117.506739,24.9894077 117.503356,25.4110145 C117.494573,25.6849158 117.597013,25.9505811 117.787012,26.1466437 C117.97701,26.3427062 118.238135,26.4522081 118.510067,26.4498551 L118.510067,26.457971 Z M118.244295,26.1333333 L118.026846,26.1333333 L118.026846,24.6886957 L118.574497,24.6886957 C118.912752,24.6886957 119.081879,24.8104348 119.081879,25.1026087 C119.08857,25.2057696 119.052513,25.3071078 118.982298,25.3824801 C118.912083,25.4578524 118.813997,25.50051 118.711409,25.5002899 L119.122148,26.1333333 L118.880537,26.1333333 L118.502013,25.5084058 L118.252349,25.5084058 L118.244295,26.1333333 Z M118.502013,25.3217391 C118.687248,25.3217391 118.848322,25.3217391 118.848322,25.0863768 C118.848322,24.8510145 118.687248,24.8753623 118.534228,24.8753623 L118.236242,24.8753623 L118.236242,25.3217391 L118.502013,25.3217391 Z M82.357047,45.8307246 L76.5503356,45.8307246 L76.5503356,37.4713043 L72.7812081,37.4713043 L72.7812081,45.8307246 L66.8053691,45.8307246 L66.8053691,24.2910145 L72.7892617,24.2910145 L72.7892617,32.3014493 L76.5583893,32.3014493 L76.5583893,24.2910145 L82.3651007,24.2910145 L82.357047,45.8307246 Z M108.934228,45.9281159 L108.958389,45.9281159 C104.799368,45.9249771 101.005393,43.5346273 99.1812081,39.7681159 C98.9538021,43.1568938 96.1730497,45.7963832 92.8026846,45.8226087 L83.5651007,45.8226087 L83.5651007,24.3072464 L93.4711409,24.3072464 C96.5395973,24.3072464 99.1651007,27.4805797 99.1651007,30.1669565 C101.354109,25.5561172 106.41956,23.0872211 111.365467,24.2205095 C116.311374,25.3537979 119.819425,29.7871972 119.81477,34.8985507 C119.806087,40.9610911 114.950112,45.8835775 108.934228,45.9281159 Z M92.0214765,37.1628986 L89.0818792,37.1710145 L89.0818792,40.7988406 L92.0214765,40.7988406 C92.9049867,40.6526375 93.5534243,39.883133 93.5534243,38.9808696 C93.5534243,38.0786061 92.9049867,37.3091016 92.0214765,37.1628986 Z M92.0214765,29.0469565 L89.0818792,29.0794203 L89.0818792,32.6828986 L92.0214765,32.6828986 C92.9049867,32.5366955 93.5534243,31.767191 93.5534243,30.8649275 C93.5534243,29.9626641 92.9049867,29.1931596 92.0214765,29.0469565 Z M95.9516779,34.8985507 C96.8471178,35.1795931 97.6201489,35.7609837 98.1422819,36.546087 C97.9917827,35.5508656 97.9917827,34.5384098 98.1422819,33.5431884 C97.5556414,34.1966854 96.7954217,34.6670457 95.9516779,34.8985507 Z M103.522148,34.8985507 C103.522148,37.9241107 105.956036,40.3768116 108.958389,40.3768116 C111.960743,40.3768116 114.394631,37.9241107 114.394631,34.8985507 C114.394631,31.8729908 111.960743,29.4202899 108.958389,29.4202899 C105.956036,29.4202899 103.522148,31.8729908 103.522148,34.8985507 Z M108.958389,39.2081467 L108.966443,39.1918841 C106.614011,39.1874364 104.706843,37.2691531 104.697987,34.8985507 C104.697987,33.1540198 105.741689,31.5815788 107.341689,30.9155023 C108.94169,30.2494257 110.78235,30.6211187 112.004146,31.8570136 C113.225942,33.0929085 113.587836,34.9491854 112.920835,36.5590282 C112.253834,38.1688711 110.689527,39.2146867 108.958389,39.2081467 Z" id="Combined-Shape" fill="#FFFFFF"></path>
    </g>
</svg>